# xmcd
#
# Track frame offsets: 
#        150
#        12365
#        23380
#        37006
#        50403
#        59798
#        71958
#        86005
#        98897
#        111472
#        122535
#        134904
#        147168
#        160934
#        174934
#        186703
#        200886
#        214073
#        227175
#        239185
#        249652
#
# Disc length: 3499 seconds
#
# Revision: 0
# Processed by: cddbd v1.5.2PL0 Copyright (c) Steve Scherf et al.
# Submitted via: ExactAudioCopyFreeDBPlugin 1.0
#
DISCID=4e0da915
DTITLE=Various Artist - Blues
DYEAR=1900
DGENRE=Blues
TTITLE0=Freddie King - Hide away
TTITLE1=Otis Rush - I'm Satisfied
TTITLE2=B.B. King - Sweet Little Angel
TTITLE3=Sam Lightnin' Hopkins - Worried Life Blues
TTITLE4=J. B. Lenoir - Mama Your Daughter Is Going to Miss Me
TTITLE5=Junior Wells - Two-headed woman
TTITLE6=Muddy Waters - I'm ready
TTITLE7=Howlin' Wolf - Back Door Man
TTITLE8=John Lee Hooker - Crawling King Snake (Blues)
TTITLE9=Jimmy Witherspoon - Spoon's Blues
TTITLE10=Little Walter (Marion Walter Jacobs) - Boom, Boom (Out Goes T
TTITLE10=he Light)
TTITLE11=Eddie Boyd - Five Long Years
TTITLE12=Sonny Boy Williamson II. - Eyesight to the blind
TTITLE13=Jimmy McCracklin - Up And Down Blues
TTITLE14=Roosevelt Sykes - High as a Georgia pine
TTITLE15=Wynonie Harris - Whiskey And Jelly-Roll Blues
TTITLE16=Big Maceo - I Got The Blues
TTITLE17=Tampa Red - Anna Lou blues
TTITLE18=Peetie Wheatstraw - Peetie Wheatstraw Stomp
TTITLE19=Robert Johnson - Stop Breakin' Down Blues
TTITLE20=Memphis Jug Band - On the road again
EXTD=
EXTT0=
EXTT1=
EXTT2=
EXTT3=
EXTT4=
EXTT5=
EXTT6=
EXTT7=
EXTT8=
EXTT9=
EXTT10=
EXTT11=
EXTT12=
EXTT13=
EXTT14=
EXTT15=
EXTT16=
EXTT17=
EXTT18=
EXTT19=
EXTT20=
PLAYORDER=
